<?xml version="1.0" encoding="UTF-8" standalone="no"?>
<svg
   xmlns:dc="http://purl.org/dc/elements/1.1/"
   xmlns:cc="http://creativecommons.org/ns#"
   xmlns:rdf="http://www.w3.org/1999/02/22-rdf-syntax-ns#"
   xmlns:svg="http://www.w3.org/2000/svg"
   xmlns="http://www.w3.org/2000/svg"
   xmlns:sodipodi="http://sodipodi.sourceforge.net/DTD/sodipodi-0.dtd"
   xmlns:inkscape="http://www.inkscape.org/namespaces/inkscape"
   height="100.00223"
   width="100"
   sodipodi:docname="logo.svg"
   inkscape:version="1.0 (4035a4f, 2020-05-01)"
   version="1.1"
   viewBox="0 0 100 100.00223"
   id="svg2">
  <defs
     id="defs156" />
  <sodipodi:namedview
     inkscape:current-layer="svg2"
     inkscape:window-maximized="0"
     inkscape:window-y="23"
     inkscape:window-x="0"
     inkscape:cy="402.10843"
     inkscape:cx="1215.8579"
     inkscape:zoom="0.38991903"
     showgrid="false"
     id="namedview154"
     inkscape:window-height="1005"
     inkscape:window-width="1680"
     inkscape:pageshadow="2"
     inkscape:pageopacity="0"
     guidetolerance="10"
     gridtolerance="10"
     objecttolerance="10"
     borderopacity="1"
     bordercolor="#666666"
     pagecolor="#ffffff" />
  <g
     transform="matrix(0.55553781,0,0,0.55553781,-139.14868,-114.95223)"
     id="g2885">
    <path
       transform="matrix(0,-0.90161,0.90161,0,72.801,654.02)"
       d="M 495.89,296.89 A 99.821,99.821 0 0 1 482.51,346.8 L 396.062,296.889 Z"
       style="fill:#ff0000"
       id="path2861" />
    <path
       transform="matrix(0.45081,-0.78082,0.78082,0.45081,-69.885,472.34)"
       d="M 495.89,296.89 A 99.821,99.821 0 0 1 482.51,346.8 L 396.062,296.889 Z"
       style="fill:#ff8000"
       id="path2863" />
    <path
       transform="matrix(0.78082,-0.45081,0.45081,0.78082,-102.62,243.66)"
       d="M 495.89,296.89 A 99.821,99.821 0 0 1 482.51,346.8 L 396.062,296.889 Z"
       style="fill:#ffff00"
       id="path2865" />
    <path
       transform="matrix(0.90161,0,0,0.90161,-16.618,29.25)"
       d="M 495.89,296.89 A 99.821,99.821 0 0 1 482.51,346.8 L 396.062,296.889 Z"
       style="fill:#80ff00"
       id="path2867" />
    <path
       transform="matrix(0.78082,0.45081,-0.45081,0.78082,165.06,-113.44)"
       d="M 495.89,296.89 A 99.821,99.821 0 0 1 482.51,346.8 L 396.062,296.889 Z"
       style="fill:#00ff00"
       id="path2869" />
    <path
       transform="matrix(0.45081,0.78082,-0.78082,0.45081,393.75,-146.17)"
       d="M 495.89,296.89 A 99.821,99.821 0 0 1 482.51,346.8 L 396.062,296.889 Z"
       style="fill:#00ff80"
       id="path2871" />
    <path
       transform="matrix(0,0.90161,-0.90161,0,608.16,-60.169)"
       d="M 495.89,296.89 A 99.821,99.821 0 0 1 482.51,346.8 L 396.062,296.889 Z"
       style="fill:#00ffff"
       id="path2873" />
    <path
       transform="matrix(-0.45081,0.78082,-0.78082,-0.45081,750.84,121.51)"
       d="M 495.89,296.89 A 99.821,99.821 0 0 1 482.51,346.8 L 396.062,296.889 Z"
       style="fill:#0080ff"
       id="path2875" />
    <path
       transform="matrix(-0.78082,0.45081,-0.45081,-0.78082,783.57,350.19)"
       d="M 495.89,296.89 A 99.821,99.821 0 0 1 482.51,346.8 L 396.062,296.889 Z"
       style="fill:#0000ff"
       id="path2877" />
    <path
       transform="matrix(-0.90161,0,0,-0.90161,697.58,564.6)"
       d="M 495.89,296.89 A 99.821,99.821 0 0 1 482.51,346.8 L 396.062,296.889 Z"
       style="fill:#8000ff"
       id="path2879" />
    <path
       transform="matrix(-0.78082,-0.45081,0.45081,-0.78082,515.89,707.29)"
       d="M 495.89,296.89 A 99.821,99.821 0 0 1 482.51,346.8 L 396.062,296.889 Z"
       style="fill:#ff00ff"
       id="path2881" />
    <path
       transform="matrix(-0.45081,-0.78082,0.78082,-0.45081,287.21,740.02)"
       d="M 495.89,296.89 A 99.821,99.821 0 0 1 482.51,346.8 L 396.062,296.889 Z"
       style="fill:#ff0080"
       id="path2883" />
  </g>
  <metadata
     id="metadata151">
    <rdf:RDF>
      <cc:Work>
        <dc:format>image/svg+xml</dc:format>
        <dc:type
           rdf:resource="http://purl.org/dc/dcmitype/StillImage" />
        <cc:license
           rdf:resource="http://creativecommons.org/licenses/publicdomain/" />
        <dc:publisher>
          <cc:Agent
             rdf:about="http://openclipart.org/">
            <dc:title>Openclipart</dc:title>
          </cc:Agent>
        </dc:publisher>
        <dc:title></dc:title>
        <dc:date>2011-07-06T17:31:53</dc:date>
        <dc:description>12 slice rainbow pizza</dc:description>
        <dc:source>https://openclipart.org/detail/148477/12-slice-rainbow-pizza-by-10binary</dc:source>
        <dc:creator>
          <cc:Agent>
            <dc:title>10binary</dc:title>
          </cc:Agent>
        </dc:creator>
        <dc:subject>
          <rdf:Bag>
            <rdf:li>12</rdf:li>
            <rdf:li>circle</rdf:li>
            <rdf:li>pizza</rdf:li>
            <rdf:li>rainbow</rdf:li>
            <rdf:li>slice</rdf:li>
          </rdf:Bag>
        </dc:subject>
      </cc:Work>
      <cc:License
         rdf:about="http://creativecommons.org/licenses/publicdomain/">
        <cc:permits
           rdf:resource="http://creativecommons.org/ns#Reproduction" />
        <cc:permits
           rdf:resource="http://creativecommons.org/ns#Distribution" />
        <cc:permits
           rdf:resource="http://creativecommons.org/ns#DerivativeWorks" />
      </cc:License>
    </rdf:RDF>
  </metadata>
  <path
     style="stroke-width:3.20172"
     d="m 85.166251,41.09673 c 0,-15.688461 -13.76742,-28.495366 -35.218997,-28.495366 -1.921037,0 -3.201727,1.28069 -3.201727,3.201725 0,1.921036 1.28069,3.20173 3.201727,3.20173 14.087593,0 29.776053,5.442933 29.776053,22.732258 0,8.004313 -0.96051,10.245523 -1.921033,13.12708 -0.320177,-5.76311 -5.122763,-9.285007 -5.122763,-9.285007 0,0 4.802586,15.688457 0,19.850697 -0.640344,0.640357 -2.561367,1.600867 -3.842077,2.24122 -3.521887,1.28068 -8.004317,4.80258 -8.004317,9.925354 0,4.162243 -0.640337,5.763107 -3.201723,5.122753 -0.320167,1.921034 -3.20172,1.921034 -3.521894,0.320177 -0.640343,1.600857 -3.20173,1.600857 -3.842073,0 0,0 -1.280694,4.802587 0,5.76311 0.960517,0.96052 2.881557,0.96052 4.162247,0 1.280696,0.96052 3.20172,0.640333 4.162243,-0.640343 0.96052,0.320166 2.2412,0 3.20173,-1.2807 3.201723,-1.921034 4.802587,-4.162244 4.802587,-8.964831 0,-4.162253 8.96483,-5.122753 11.526227,-8.00432 1.28068,-1.600853 1.921023,-4.16224 1.600846,-7.043786 1.2807,-3.521907 5.442944,-12.806914 5.442944,-21.771751 z"
     id="path121" />
  <path
     style="stroke-width:3.20172"
     d="m 14.728261,41.09673 c 0,-15.688461 13.767423,-28.495366 35.218993,-28.495366 1.921033,0 3.20173,1.28069 3.20173,3.201725 0,1.921036 -1.280697,3.20173 -3.20173,3.20173 -14.087601,0 -29.776056,5.442933 -29.776056,22.732258 0,8.004313 0.960516,10.245523 1.921033,13.12708 0.320173,-5.76311 5.122763,-9.285007 5.122763,-9.285007 0,0 -4.80259,15.688457 0,19.850697 0.640347,0.640357 2.561384,1.600867 3.842071,2.24122 3.521898,1.28068 8.004318,4.80258 8.004318,9.925354 0,4.162243 0.640344,5.763107 3.201727,5.122753 0.32017,1.921034 3.201727,1.921034 3.521897,0.320177 0.640346,1.600857 3.201726,1.600857 3.842073,0 0,0 1.28069,4.802587 0,5.76311 -0.96052,0.96052 -2.881553,0.96052 -4.162243,0 -1.280694,0.96052 -3.201727,0.640333 -4.162247,-0.640343 -0.960517,0.320166 -2.241207,0 -3.201727,-1.2807 -3.201726,-1.921034 -4.802588,-4.162244 -4.802588,-8.964831 0,-4.162253 -8.964834,-5.122753 -11.526214,-8.00432 -1.280693,-1.600853 -1.921037,-4.16224 -1.600863,-7.043786 C 18.890504,59.346574 14.728261,50.061567 14.728261,41.09673 Z"
     id="path123" />
  <path
     style="clip-rule:evenodd;fill-rule:evenodd;stroke-width:3.20172"
     d="m 49.947254,63.188637 c -1.921037,0.640357 -5.122764,5.442944 -5.122764,8.00432 0,1.28069 0.960517,1.921044 1.921037,1.921044 1.60086,0 2.881553,-1.600867 2.881553,-2.561377 0.320174,1.280687 1.28069,2.561377 2.881554,2.561377 0.960523,0 1.92104,-0.640354 1.92104,-1.921044 0.640343,-2.24121 -2.561387,-7.363963 -4.48242,-8.00432 z"
     id="path125" />
  <path
     style="clip-rule:evenodd;fill-rule:evenodd;stroke-width:3.20172"
     d="m 69.157621,53.263294 c 0,-4.80259 -4.802597,-9.925354 -8.644661,-4.482417 -1.921043,2.241207 -6.40346,7.363973 -7.363976,8.644653 0.960516,4.162254 3.201723,6.403464 6.403453,6.403464 6.403453,0 9.605184,-6.083287 9.605184,-10.5657 z"
     id="path127" />
  <path
     style="clip-rule:evenodd;fill-rule:evenodd;stroke-width:3.20172"
     d="m 30.736895,53.263294 c 0,-4.80259 4.802588,-9.925354 8.644658,-4.482417 1.921037,2.241207 6.403454,7.363973 7.363974,8.644653 -0.96052,4.162254 -3.20173,6.403464 -6.403454,6.403464 -6.403453,0 -9.605178,-6.083287 -9.605178,-10.5657 z"
     id="path129" />
</svg>
