<?xml version="1.0" encoding="UTF-8" standalone="no"?>
<svg
   xmlns:dc="http://purl.org/dc/elements/1.1/"
   xmlns:cc="http://creativecommons.org/ns#"
   xmlns:rdf="http://www.w3.org/1999/02/22-rdf-syntax-ns#"
   xmlns:svg="http://www.w3.org/2000/svg"
   xmlns="http://www.w3.org/2000/svg"
   xmlns:sodipodi="http://sodipodi.sourceforge.net/DTD/sodipodi-0.dtd"
   xmlns:inkscape="http://www.inkscape.org/namespaces/inkscape"
   height="100.00223"
   width="100"
   sodipodi:docname="logo.svg"
   inkscape:version="1.0 (4035a4f, 2020-05-01)"
   version="1.1"
   viewBox="0 0 100 100.00223"
   id="svg2">
  <defs
     id="defs156" />
  <sodipodi:namedview
     inkscape:current-layer="g224"
     inkscape:window-maximized="0"
     inkscape:window-y="23"
     inkscape:window-x="0"
     inkscape:cy="91.745382"
     inkscape:cx="-24.868438"
     inkscape:zoom="2.0346569"
     showgrid="false"
     id="namedview154"
     inkscape:window-height="1005"
     inkscape:window-width="1680"
     inkscape:pageshadow="2"
     inkscape:pageopacity="0"
     guidetolerance="10"
     gridtolerance="10"
     objecttolerance="10"
     borderopacity="1"
     bordercolor="#666666"
     pagecolor="#ffffff"
     inkscape:document-rotation="0" />
  <g
     transform="matrix(0.55553781,0,0,0.55553781,-139.14868,-114.95223)"
     id="g2885">
    <path
       transform="matrix(0,-0.90161,0.90161,0,72.801,654.02)"
       d="M 495.89,296.89 A 99.821,99.821 0 0 1 482.51,346.8 L 396.062,296.889 Z"
       style="fill:#ff0000"
       id="path2861" />
    <path
       transform="matrix(0.45081,-0.78082,0.78082,0.45081,-69.885,472.34)"
       d="M 495.89,296.89 A 99.821,99.821 0 0 1 482.51,346.8 L 396.062,296.889 Z"
       style="fill:#ff8000"
       id="path2863" />
    <path
       transform="matrix(0.78082,-0.45081,0.45081,0.78082,-102.62,243.66)"
       d="M 495.89,296.89 A 99.821,99.821 0 0 1 482.51,346.8 L 396.062,296.889 Z"
       style="fill:#ffff00"
       id="path2865" />
    <path
       transform="matrix(0.90161,0,0,0.90161,-16.618,29.25)"
       d="M 495.89,296.89 A 99.821,99.821 0 0 1 482.51,346.8 L 396.062,296.889 Z"
       style="fill:#80ff00"
       id="path2867" />
    <path
       transform="matrix(0.78082,0.45081,-0.45081,0.78082,165.06,-113.44)"
       d="M 495.89,296.89 A 99.821,99.821 0 0 1 482.51,346.8 L 396.062,296.889 Z"
       style="fill:#00ff00"
       id="path2869" />
    <path
       transform="matrix(0.45081,0.78082,-0.78082,0.45081,393.75,-146.17)"
       d="M 495.89,296.89 A 99.821,99.821 0 0 1 482.51,346.8 L 396.062,296.889 Z"
       style="fill:#00ff80"
       id="path2871" />
    <path
       transform="matrix(0,0.90161,-0.90161,0,608.16,-60.169)"
       d="M 495.89,296.89 A 99.821,99.821 0 0 1 482.51,346.8 L 396.062,296.889 Z"
       style="fill:#00ffff"
       id="path2873" />
    <path
       transform="matrix(-0.45081,0.78082,-0.78082,-0.45081,750.84,121.51)"
       d="M 495.89,296.89 A 99.821,99.821 0 0 1 482.51,346.8 L 396.062,296.889 Z"
       style="fill:#0080ff"
       id="path2875" />
    <path
       transform="matrix(-0.78082,0.45081,-0.45081,-0.78082,783.57,350.19)"
       d="M 495.89,296.89 A 99.821,99.821 0 0 1 482.51,346.8 L 396.062,296.889 Z"
       style="fill:#0000ff"
       id="path2877" />
    <path
       transform="matrix(-0.90161,0,0,-0.90161,697.58,564.6)"
       d="M 495.89,296.89 A 99.821,99.821 0 0 1 482.51,346.8 L 396.062,296.889 Z"
       style="fill:#8000ff"
       id="path2879" />
    <path
       transform="matrix(-0.78082,-0.45081,0.45081,-0.78082,515.89,707.29)"
       d="M 495.89,296.89 A 99.821,99.821 0 0 1 482.51,346.8 L 396.062,296.889 Z"
       style="fill:#ff00ff"
       id="path2881" />
    <path
       transform="matrix(-0.45081,-0.78082,0.78082,-0.45081,287.21,740.02)"
       d="M 495.89,296.89 A 99.821,99.821 0 0 1 482.51,346.8 L 396.062,296.889 Z"
       style="fill:#ff0080"
       id="path2883" />
  </g>
  <metadata
     id="metadata151">
    <rdf:RDF>
      <cc:Work>
        <dc:format>image/svg+xml</dc:format>
        <dc:type
           rdf:resource="http://purl.org/dc/dcmitype/StillImage" />
        <cc:license
           rdf:resource="http://creativecommons.org/licenses/publicdomain/" />
        <dc:publisher>
          <cc:Agent
             rdf:about="http://openclipart.org/">
            <dc:title>Openclipart</dc:title>
          </cc:Agent>
        </dc:publisher>
        <dc:title></dc:title>
        <dc:date>2011-07-06T17:31:53</dc:date>
        <dc:description>12 slice rainbow pizza</dc:description>
        <dc:source>https://openclipart.org/detail/148477/12-slice-rainbow-pizza-by-10binary</dc:source>
        <dc:creator>
          <cc:Agent>
            <dc:title>10binary</dc:title>
          </cc:Agent>
        </dc:creator>
        <dc:subject>
          <rdf:Bag>
            <rdf:li>12</rdf:li>
            <rdf:li>circle</rdf:li>
            <rdf:li>pizza</rdf:li>
            <rdf:li>rainbow</rdf:li>
            <rdf:li>slice</rdf:li>
          </rdf:Bag>
        </dc:subject>
      </cc:Work>
      <cc:License
         rdf:about="http://creativecommons.org/licenses/publicdomain/">
        <cc:permits
           rdf:resource="http://creativecommons.org/ns#Reproduction" />
        <cc:permits
           rdf:resource="http://creativecommons.org/ns#Distribution" />
        <cc:permits
           rdf:resource="http://creativecommons.org/ns#DerivativeWorks" />
      </cc:License>
    </rdf:RDF>
  </metadata>
  <rect
     id="rect107"
     x="-1127.6603"
     y="-1483.1116"
     width="10.64"
     height="548.20001"
     style="color:#000000;fill:none" />
  <g
     transform="translate(-92.518641,3.3172749)"
     id="g228">
    <g
       id="g224">
      <path
         style="stroke-width:0.785674"
         d="m 172.68237,33.334918 -17.43064,-18.111131 -10.24534,10.642442 7.14908,7.427045 c -0.1611,0.18019 -0.30909,0.345965 -0.47481,0.529359 -1.87841,2.078996 -4.12604,4.453504 -6.59411,6.932923 -1.21553,1.25893 -2.52588,2.502644 -3.83853,3.783196 -1.31111,1.28696 -2.66462,2.568313 -4.04048,3.829646 -2.71164,2.558702 -5.4965,5.044528 -8.11025,7.370986 -2.64458,2.296826 -5.1273,4.424673 -7.30247,6.198547 -4.32336,3.573375 -7.38725,5.769294 -7.38725,5.769294 -0.53492,0.386008 -1.03208,0.888138 -1.42365,1.479963 -1.75046,2.634784 -1.11225,6.244196 1.42365,8.060515 2.53359,1.818721 6.00908,1.157222 7.75877,-1.479163 0,0 2.11428,-3.181761 5.552,-7.67771 1.70962,-2.257584 3.75683,-4.837109 5.96823,-7.584811 2.2376,-2.714067 4.63245,-5.607524 7.09358,-8.427302 1.21554,-1.427108 2.44803,-2.835796 3.6836,-4.196433 1.23558,-1.367845 2.43031,-2.728482 3.64353,-3.991416 2.38559,-2.563508 4.6733,-4.893969 6.67196,-6.848033 0.17651,-0.172983 0.33683,-0.327546 0.50718,-0.494122 l 7.15138,7.427045 z"
         id="path218" />
      <path
         style="stroke-width:0.785674"
         d="m 143.11796,24.838743 11.14408,-11.576228 c 0.64283,-0.668706 0.64823,-1.757056 0,-2.426563 -0.64747,-0.670308 -1.69189,-0.670308 -2.33704,0 l -11.14254,11.575427 c -0.64515,0.669508 -0.64515,1.757056 0,2.427364 0.64592,0.671109 1.69034,0.669508 2.3355,0 z"
         id="path220" />
      <path
         style="stroke-width:0.785674"
         d="m 176.9063,34.361602 c -0.64592,-0.670308 -1.69265,-0.668706 -2.33549,0 L 163.42673,45.93783 c -0.64515,0.671109 -0.64515,1.757056 0,2.426563 0.64515,0.670308 1.68957,0.670308 2.33241,0 l 11.14639,-11.575427 c 0.64361,-0.670308 0.64515,-1.758657 7.7e-4,-2.427364 z"
         id="path222" />
    </g>
  </g>
</svg>
