<?xml version="1.0" encoding="UTF-8" standalone="no"?>
<svg
   xmlns:dc="http://purl.org/dc/elements/1.1/"
   xmlns:cc="http://creativecommons.org/ns#"
   xmlns:rdf="http://www.w3.org/1999/02/22-rdf-syntax-ns#"
   xmlns:svg="http://www.w3.org/2000/svg"
   xmlns="http://www.w3.org/2000/svg"
   xmlns:sodipodi="http://sodipodi.sourceforge.net/DTD/sodipodi-0.dtd"
   xmlns:inkscape="http://www.inkscape.org/namespaces/inkscape"
   id="svg2"
   viewBox="0 0 100 100.00223"
   version="1.1"
   inkscape:version="1.0 (4035a4f, 2020-05-01)"
   sodipodi:docname="logo.svg"
   width="100"
   height="100.00223">
  <defs
     id="defs156" />
  <sodipodi:namedview
     inkscape:document-rotation="0"
     pagecolor="#ffffff"
     bordercolor="#666666"
     borderopacity="1"
     objecttolerance="10"
     gridtolerance="10"
     guidetolerance="10"
     inkscape:pageopacity="0"
     inkscape:pageshadow="2"
     inkscape:window-width="1920"
     inkscape:window-height="1035"
     id="namedview154"
     showgrid="false"
     inkscape:zoom="35.757286"
     inkscape:cx="43.537123"
     inkscape:cy="18.726437"
     inkscape:window-x="1680"
     inkscape:window-y="23"
     inkscape:window-maximized="0"
     inkscape:current-layer="svg2" />
  <g
     id="g2885"
     transform="matrix(0.55553781,0,0,0.55553781,-139.14868,-114.95223)">
    <path
       id="path2861"
       style="fill:#ff0000"
       d="M 495.89,296.89 A 99.821,99.821 0 0 1 482.51,346.8 L 396.062,296.889 Z"
       transform="matrix(0,-0.90161,0.90161,0,72.801,654.02)" />
    <path
       id="path2863"
       style="fill:#ff8000"
       d="M 495.89,296.89 A 99.821,99.821 0 0 1 482.51,346.8 L 396.062,296.889 Z"
       transform="matrix(0.45081,-0.78082,0.78082,0.45081,-69.885,472.34)" />
    <path
       id="path2865"
       style="fill:#ffff00"
       d="M 495.89,296.89 A 99.821,99.821 0 0 1 482.51,346.8 L 396.062,296.889 Z"
       transform="matrix(0.78082,-0.45081,0.45081,0.78082,-102.62,243.66)" />
    <path
       id="path2867"
       style="fill:#80ff00"
       d="M 495.89,296.89 A 99.821,99.821 0 0 1 482.51,346.8 L 396.062,296.889 Z"
       transform="matrix(0.90161,0,0,0.90161,-16.618,29.25)" />
    <path
       id="path2869"
       style="fill:#00ff00"
       d="M 495.89,296.89 A 99.821,99.821 0 0 1 482.51,346.8 L 396.062,296.889 Z"
       transform="matrix(0.78082,0.45081,-0.45081,0.78082,165.06,-113.44)" />
    <path
       id="path2871"
       style="fill:#00ff80"
       d="M 495.89,296.89 A 99.821,99.821 0 0 1 482.51,346.8 L 396.062,296.889 Z"
       transform="matrix(0.45081,0.78082,-0.78082,0.45081,393.75,-146.17)" />
    <path
       id="path2873"
       style="fill:#00ffff"
       d="M 495.89,296.89 A 99.821,99.821 0 0 1 482.51,346.8 L 396.062,296.889 Z"
       transform="matrix(0,0.90161,-0.90161,0,608.16,-60.169)" />
    <path
       id="path2875"
       style="fill:#0080ff"
       d="M 495.89,296.89 A 99.821,99.821 0 0 1 482.51,346.8 L 396.062,296.889 Z"
       transform="matrix(-0.45081,0.78082,-0.78082,-0.45081,750.84,121.51)" />
    <path
       id="path2877"
       style="fill:#0000ff"
       d="M 495.89,296.89 A 99.821,99.821 0 0 1 482.51,346.8 L 396.062,296.889 Z"
       transform="matrix(-0.78082,0.45081,-0.45081,-0.78082,783.57,350.19)" />
    <path
       id="path2879"
       style="fill:#8000ff"
       d="M 495.89,296.89 A 99.821,99.821 0 0 1 482.51,346.8 L 396.062,296.889 Z"
       transform="matrix(-0.90161,0,0,-0.90161,697.58,564.6)" />
    <path
       id="path2881"
       style="fill:#ff00ff"
       d="M 495.89,296.89 A 99.821,99.821 0 0 1 482.51,346.8 L 396.062,296.889 Z"
       transform="matrix(-0.78082,-0.45081,0.45081,-0.78082,515.89,707.29)" />
    <path
       id="path2883"
       style="fill:#ff0080"
       d="M 495.89,296.89 A 99.821,99.821 0 0 1 482.51,346.8 L 396.062,296.889 Z"
       transform="matrix(-0.45081,-0.78082,0.78082,-0.45081,287.21,740.02)" />
  </g>
  <metadata
     id="metadata151">
    <rdf:RDF>
      <cc:Work>
        <dc:format>image/svg+xml</dc:format>
        <dc:type
           rdf:resource="http://purl.org/dc/dcmitype/StillImage" />
        <cc:license
           rdf:resource="http://creativecommons.org/licenses/publicdomain/" />
        <dc:publisher>
          <cc:Agent
             rdf:about="http://openclipart.org/">
            <dc:title>Openclipart</dc:title>
          </cc:Agent>
        </dc:publisher>
        <dc:title></dc:title>
        <dc:date>2011-07-06T17:31:53</dc:date>
        <dc:description>12 slice rainbow pizza</dc:description>
        <dc:source>https://openclipart.org/detail/148477/12-slice-rainbow-pizza-by-10binary</dc:source>
        <dc:creator>
          <cc:Agent>
            <dc:title>10binary</dc:title>
          </cc:Agent>
        </dc:creator>
        <dc:subject>
          <rdf:Bag>
            <rdf:li>12</rdf:li>
            <rdf:li>circle</rdf:li>
            <rdf:li>pizza</rdf:li>
            <rdf:li>rainbow</rdf:li>
            <rdf:li>slice</rdf:li>
          </rdf:Bag>
        </dc:subject>
      </cc:Work>
      <cc:License
         rdf:about="http://creativecommons.org/licenses/publicdomain/">
        <cc:permits
           rdf:resource="http://creativecommons.org/ns#Reproduction" />
        <cc:permits
           rdf:resource="http://creativecommons.org/ns#Distribution" />
        <cc:permits
           rdf:resource="http://creativecommons.org/ns#DerivativeWorks" />
      </cc:License>
    </rdf:RDF>
  </metadata>
  <rect
     style="color:#000000;fill:none"
     height="548.20001"
     width="10.64"
     y="-1483.1116"
     x="-1127.6603"
     id="rect107" />
  <g
     transform="matrix(3.4573286,0,0,2.7789373,5.0760675,14.264954)"
     id="g281">
    <path
       style="fill:#030104"
       d="m 19,24.968 v 1 H 7 v -1 c 0,-0.551 0.449,-1 1,-1 h 2.013 C 10.066,22.72 10.876,21.678 12,21.279 V 9.554 C 11.473,9.221 11.12,8.637 11.12,7.967 h 0.88 2 0.88 c 0,0.67 -0.353,1.254 -0.88,1.587 v 11.724 c 1.124,0.399 1.934,1.441 1.987,2.689 H 18 c 0.551,0.001 1,0.45 1,1.001 z m 7,-9.001 c -0.733,2.064 -2.685,3.553 -5,3.553 -2.315,0 -4.267,-1.49 -5,-3.553 h 1.154 l 3.378,-8.953 c 0.146,-0.39 0.789,-0.39 0.936,0 l 3.378,8.953 z m -2.223,0 L 21,8.608 l -2.777,7.36 h 5.554 z M 5,5.978 C 5.453,5.978 5.822,5.675 5.95,5.264 6.281,5.138 6.62,4.968 6.968,4.792 7.733,4.406 8.6,3.967 9.5,3.967 c 0.864,0 1.404,0.399 1.713,0.739 -0.012,0.086 -0.026,0.172 -0.026,0.261 0,1.001 0.812,1.813 1.813,1.813 1.001,0 1.813,-0.812 1.813,-1.813 0,-0.089 -0.014,-0.174 -0.026,-0.26 0.308,-0.339 0.848,-0.74 1.713,-0.74 0.9,0 1.767,0.438 2.531,0.824 0.349,0.176 0.688,0.346 1.019,0.472 0.128,0.411 0.497,0.714 0.95,0.714 0.558,0 1.01,-0.452 1.01,-1.01 0,-0.558 -0.452,-1.01 -1.01,-1.01 -0.288,0 -0.545,0.124 -0.729,0.318 C 20.024,4.171 19.757,4.038 19.482,3.899 18.618,3.462 17.639,2.967 16.5,2.967 15.504,2.967 14.81,3.346 14.339,3.754 14.128,3.521 13.858,3.347 13.551,3.248 13.924,3.048 14.186,2.667 14.186,2.216 14.186,1.561 13,0.032 13,0.032 c 0,0 -1.186,1.529 -1.186,2.184 0,0.452 0.262,0.832 0.635,1.032 C 12.142,3.346 11.872,3.521 11.661,3.754 11.19,3.346 10.496,2.967 9.5,2.967 8.361,2.967 7.381,3.462 6.517,3.899 6.242,4.039 5.976,4.172 5.729,4.275 5.545,4.082 5.288,3.957 5,3.957 c -0.558,0 -1.01,0.452 -1.01,1.01 0,0.558 0.452,1.011 1.01,1.011 z m 0,13.543 c -2.315,0 -4.267,-1.49 -5,-3.553 H 1.154 L 4.532,7.015 c 0.146,-0.39 0.789,-0.39 0.936,0 l 3.378,8.953 H 10 C 9.267,18.031 7.315,19.521 5,19.521 Z M 7.777,15.967 5,8.608 2.223,15.968 h 5.554 z"
       id="path279" />
  </g>
  <g
     transform="matrix(3.4573286,0,0,2.7789373,5.0760675,14.264954)"
     id="g283" />
  <g
     transform="matrix(3.4573286,0,0,2.7789373,5.0760675,14.264954)"
     id="g285" />
  <g
     transform="matrix(3.4573286,0,0,2.7789373,5.0760675,14.264954)"
     id="g287" />
  <g
     transform="matrix(3.4573286,0,0,2.7789373,5.0760675,14.264954)"
     id="g289" />
  <g
     transform="matrix(3.4573286,0,0,2.7789373,5.0760675,14.264954)"
     id="g291" />
  <g
     transform="matrix(3.4573286,0,0,2.7789373,5.0760675,14.264954)"
     id="g293" />
  <g
     transform="matrix(3.4573286,0,0,2.7789373,5.0760675,14.264954)"
     id="g295" />
  <g
     transform="matrix(3.4573286,0,0,2.7789373,5.0760675,14.264954)"
     id="g297" />
  <g
     transform="matrix(3.4573286,0,0,2.7789373,5.0760675,14.264954)"
     id="g299" />
  <g
     transform="matrix(3.4573286,0,0,2.7789373,5.0760675,14.264954)"
     id="g301" />
  <g
     transform="matrix(3.4573286,0,0,2.7789373,5.0760675,14.264954)"
     id="g303" />
  <g
     transform="matrix(3.4573286,0,0,2.7789373,5.0760675,14.264954)"
     id="g305" />
  <g
     transform="matrix(3.4573286,0,0,2.7789373,5.0760675,14.264954)"
     id="g307" />
  <g
     transform="matrix(3.4573286,0,0,2.7789373,5.0760675,14.264954)"
     id="g309" />
  <g
     transform="matrix(3.4573286,0,0,2.7789373,5.0760675,14.264954)"
     id="g311" />
</svg>
