<?xml version="1.0" encoding="UTF-8" standalone="no"?>
<svg
   xmlns:dc="http://purl.org/dc/elements/1.1/"
   xmlns:cc="http://creativecommons.org/ns#"
   xmlns:rdf="http://www.w3.org/1999/02/22-rdf-syntax-ns#"
   xmlns:svg="http://www.w3.org/2000/svg"
   xmlns="http://www.w3.org/2000/svg"
   xmlns:xlink="http://www.w3.org/1999/xlink"
   xmlns:sodipodi="http://sodipodi.sourceforge.net/DTD/sodipodi-0.dtd"
   xmlns:inkscape="http://www.inkscape.org/namespaces/inkscape"
   id="svg2"
   viewBox="0 0 100 100.00223"
   version="1.1"
   inkscape:version="1.0 (4035a4f, 2020-05-01)"
   sodipodi:docname="logo.svg"
   width="100"
   height="100.00223">
  <defs
     id="defs156" />
  <sodipodi:namedview
     inkscape:document-rotation="0"
     pagecolor="#ffffff"
     bordercolor="#666666"
     borderopacity="1"
     objecttolerance="10"
     gridtolerance="10"
     guidetolerance="10"
     inkscape:pageopacity="0"
     inkscape:pageshadow="2"
     inkscape:window-width="1920"
     inkscape:window-height="1035"
     id="namedview154"
     showgrid="false"
     inkscape:zoom="9.776133"
     inkscape:cx="18.597659"
     inkscape:cy="25.069254"
     inkscape:window-x="1680"
     inkscape:window-y="23"
     inkscape:window-maximized="0"
     inkscape:current-layer="svg2" />
  <g
     id="g2885"
     transform="matrix(0.55553781,0,0,0.55553781,-139.14868,-114.95223)">
    <path
       id="path2861"
       style="fill:#ff0000"
       d="M 495.89,296.89 A 99.821,99.821 0 0 1 482.51,346.8 L 396.062,296.889 Z"
       transform="matrix(0,-0.90161,0.90161,0,72.801,654.02)" />
    <path
       id="path2863"
       style="fill:#ff8000"
       d="M 495.89,296.89 A 99.821,99.821 0 0 1 482.51,346.8 L 396.062,296.889 Z"
       transform="matrix(0.45081,-0.78082,0.78082,0.45081,-69.885,472.34)" />
    <path
       id="path2865"
       style="fill:#ffff00"
       d="M 495.89,296.89 A 99.821,99.821 0 0 1 482.51,346.8 L 396.062,296.889 Z"
       transform="matrix(0.78082,-0.45081,0.45081,0.78082,-102.62,243.66)" />
    <path
       id="path2867"
       style="fill:#80ff00"
       d="M 495.89,296.89 A 99.821,99.821 0 0 1 482.51,346.8 L 396.062,296.889 Z"
       transform="matrix(0.90161,0,0,0.90161,-16.618,29.25)" />
    <path
       id="path2869"
       style="fill:#00ff00"
       d="M 495.89,296.89 A 99.821,99.821 0 0 1 482.51,346.8 L 396.062,296.889 Z"
       transform="matrix(0.78082,0.45081,-0.45081,0.78082,165.06,-113.44)" />
    <path
       id="path2871"
       style="fill:#00ff80"
       d="M 495.89,296.89 A 99.821,99.821 0 0 1 482.51,346.8 L 396.062,296.889 Z"
       transform="matrix(0.45081,0.78082,-0.78082,0.45081,393.75,-146.17)" />
    <path
       id="path2873"
       style="fill:#00ffff"
       d="M 495.89,296.89 A 99.821,99.821 0 0 1 482.51,346.8 L 396.062,296.889 Z"
       transform="matrix(0,0.90161,-0.90161,0,608.16,-60.169)" />
    <path
       id="path2875"
       style="fill:#0080ff"
       d="M 495.89,296.89 A 99.821,99.821 0 0 1 482.51,346.8 L 396.062,296.889 Z"
       transform="matrix(-0.45081,0.78082,-0.78082,-0.45081,750.84,121.51)" />
    <path
       id="path2877"
       style="fill:#0000ff"
       d="M 495.89,296.89 A 99.821,99.821 0 0 1 482.51,346.8 L 396.062,296.889 Z"
       transform="matrix(-0.78082,0.45081,-0.45081,-0.78082,783.57,350.19)" />
    <path
       id="path2879"
       style="fill:#8000ff"
       d="M 495.89,296.89 A 99.821,99.821 0 0 1 482.51,346.8 L 396.062,296.889 Z"
       transform="matrix(-0.90161,0,0,-0.90161,697.58,564.6)" />
    <path
       id="path2881"
       style="fill:#ff00ff"
       d="M 495.89,296.89 A 99.821,99.821 0 0 1 482.51,346.8 L 396.062,296.889 Z"
       transform="matrix(-0.78082,-0.45081,0.45081,-0.78082,515.89,707.29)" />
    <path
       id="path2883"
       style="fill:#ff0080"
       d="M 495.89,296.89 A 99.821,99.821 0 0 1 482.51,346.8 L 396.062,296.889 Z"
       transform="matrix(-0.45081,-0.78082,0.78082,-0.45081,287.21,740.02)" />
  </g>
  <metadata
     id="metadata151">
    <rdf:RDF>
      <cc:Work>
        <dc:format>image/svg+xml</dc:format>
        <dc:type
           rdf:resource="http://purl.org/dc/dcmitype/StillImage" />
        <cc:license
           rdf:resource="http://creativecommons.org/licenses/publicdomain/" />
        <dc:publisher>
          <cc:Agent
             rdf:about="http://openclipart.org/">
            <dc:title>Openclipart</dc:title>
          </cc:Agent>
        </dc:publisher>
        <dc:title />
        <dc:date>2011-07-06T17:31:53</dc:date>
        <dc:description>12 slice rainbow pizza</dc:description>
        <dc:source>https://openclipart.org/detail/148477/12-slice-rainbow-pizza-by-10binary</dc:source>
        <dc:creator>
          <cc:Agent>
            <dc:title>10binary</dc:title>
          </cc:Agent>
        </dc:creator>
        <dc:subject>
          <rdf:Bag>
            <rdf:li>12</rdf:li>
            <rdf:li>circle</rdf:li>
            <rdf:li>pizza</rdf:li>
            <rdf:li>rainbow</rdf:li>
            <rdf:li>slice</rdf:li>
          </rdf:Bag>
        </dc:subject>
      </cc:Work>
      <cc:License
         rdf:about="http://creativecommons.org/licenses/publicdomain/">
        <cc:permits
           rdf:resource="http://creativecommons.org/ns#Reproduction" />
        <cc:permits
           rdf:resource="http://creativecommons.org/ns#Distribution" />
        <cc:permits
           rdf:resource="http://creativecommons.org/ns#DerivativeWorks" />
      </cc:License>
    </rdf:RDF>
  </metadata>
  <use
     xlink:href="#a"
     transform="matrix(-1,0,0,1,100.03755,2.5e-6)"
     height="1300"
     width="1640"
     y="0"
     x="0"
     id="use104" />
  <path
     style="stroke-width:0.0545761"
     id="a"
     d="m 50.024485,14.51954 -1.58949,2.05895 c -0.309567,0.343764 -0.495327,0.783129 -0.495327,1.263781 0,0.610733 0.300466,1.156687 0.773082,1.521883 1.10774,0.920018 0.527075,1.753826 -0.684138,2.285682 -0.02657,1.366169 0.0082,2.256939 -0.02312,2.841029 -0.431869,0.284117 -0.78905,0.657756 -1.040474,1.090859 -0.424283,0.0081 -0.846627,0.04605 -1.236582,0.08645 -5.695483,0.433628 -10.809444,2.918895 -16.157152,4.52226 -2.669864,0.807692 -5.592292,1.055329 -8.306623,0.279189 -0.324059,-0.09231 -0.661336,-0.185021 -0.999417,-0.285713 l -0.363452,-0.922643 c 0.07587,-0.01212 0.151191,-0.02686 0.224509,-0.0507 1.413896,-0.205745 1.872844,-1.91372 1.038755,-2.876579 -1.295307,-1.745989 -4.211462,-1.579349 -5.775292,-0.240003 -1.485158,1.04018 -1.488014,3.168614 -0.240537,4.367093 0.737166,0.729845 1.624264,1.263781 2.58891,1.668668 L 7.0313151,59.479579 4.5638395,59.478125 c 0.7183483,0.38806 1.344907,0.828597 2.0062432,1.120148 5.8551163,3.105856 13.0557123,3.731758 19.5892643,2.16968 3.101444,-0.808763 5.495376,-1.732982 8.015867,-3.275204 l -2.424712,-0.0015 -10.324841,-26.346737 c 0.449367,0.08019 0.897365,0.152098 1.338062,0.218794 4.850572,0.61857 9.412658,-1.33171 13.865277,-2.79037 3.309541,-1.115401 6.744505,-2.04378 10.296341,-2.104377 v 0.01007 c 0.257063,0.474692 0.639097,0.882406 1.108306,1.185429 V 66.48052 c 0,7.016395 -7.223396,8.306859 -8.711404,8.306859 -1.483446,0 -2.864843,0.636305 -2.864843,1.670182 -3.030184,0.08342 -6.624776,0 -8.888151,0 -2.265079,0 -3.958899,0.596674 -3.958899,2.316567 8.802627,0.06039 17.610954,0.02485 26.413577,0.03414 z M 18.958737,26.572276 c 0.243615,-5.25e-4 0.54412,0.04342 0.758832,0.152098 0.989155,0.358085 0.742293,1.688017 -0.14419,1.717265 -0.05626,-0.12907 -0.01624,-0.262584 -0.167504,-0.290581 -0.139731,-0.02585 -0.191044,0.126041 -0.229812,0.218795 -0.07338,-0.02808 -0.162818,-0.0505 -0.239619,-0.09716 -0.912187,-0.600289 0.552097,-1.449247 -0.591215,-1.146749 -1.153352,0.678116 -0.340073,1.594478 0.568638,1.988416 l -0.194183,0.494689 c -0.55222,-0.27626 -1.040468,-0.633193 -1.391658,-1.127944 -0.550278,-0.981159 0.574675,-1.906913 1.629965,-1.908488 z m 0.194182,2.628396 0.09624,0.02626 v 0.615438 l -0.299313,-0.125636 z m 0.352795,0.07029 0.130038,0.0081 0.318919,0.812924 -0.448962,-0.151896 z m -1.539321,2.956506 c 0.41721,0.164217 0.846622,0.305528 1.284475,0.429388 l 0.01246,26.827388 -11.97249,-0.006 z m 1.539321,0.497942 1.623124,0.362469 10.353346,26.404201 -11.955375,-0.006 -0.02493,-0.08323 z" />
  <rect
     style="color:#000000;fill:none"
     height="548.20001"
     width="10.64"
     y="-1483.1116"
     x="-1127.6603"
     id="rect107" />
</svg>
