<?xml version="1.0" encoding="UTF-8" standalone="no"?>
<svg
   xmlns:dc="http://purl.org/dc/elements/1.1/"
   xmlns:cc="http://creativecommons.org/ns#"
   xmlns:rdf="http://www.w3.org/1999/02/22-rdf-syntax-ns#"
   xmlns:svg="http://www.w3.org/2000/svg"
   xmlns="http://www.w3.org/2000/svg"
   xmlns:sodipodi="http://sodipodi.sourceforge.net/DTD/sodipodi-0.dtd"
   xmlns:inkscape="http://www.inkscape.org/namespaces/inkscape"
   inkscape:version="1.0 (4035a4f, 2020-05-01)"
   sodipodi:docname="exit.svg"
   xml:space="preserve"
   width="28"
   viewBox="0 0 28 28.014583"
   version="1.1"
   id="Layer_1"
   height="28.014584"><metadata
     id="metadata385"><rdf:RDF><cc:Work
         rdf:about=""><dc:format>image/svg+xml</dc:format><dc:type
           rdf:resource="http://purl.org/dc/dcmitype/StillImage" /></cc:Work></rdf:RDF></metadata><defs
     id="defs383" /><sodipodi:namedview
     inkscape:current-layer="Layer_1"
     inkscape:window-maximized="0"
     inkscape:window-y="23"
     inkscape:window-x="0"
     inkscape:cy="255.35433"
     inkscape:cx="255.99032"
     inkscape:zoom="0.95803665"
     showgrid="false"
     id="namedview381"
     inkscape:window-height="1005"
     inkscape:window-width="1680"
     inkscape:pageshadow="2"
     inkscape:pageopacity="0"
     guidetolerance="10"
     gridtolerance="10"
     objecttolerance="10"
     borderopacity="1"
     bordercolor="#666666"
     pagecolor="#ffffff" /><path
     style="stroke-width:0.0729167"
     id="path378"
     d="M 27.682812,23.544792 18.116146,13.941667 27.704688,4.4625 c 0.393749,-0.39375 0.393749,-1.0354167 0,-1.4291667 L 24.977604,0.29166667 C 24.788021,0.10208333 24.532813,0 24.263021,0 c -0.269792,0 -0.525,0.109375 -0.714583,0.29166667 L 14.003646,9.7416667 4.4442708,0.29895833 C 4.2546875,0.109375 3.9994792,0.00729167 3.7296875,0.00729167 c -0.2697917,0 -0.525,0.109375 -0.7145833,0.29166666 L 0.2953125,3.040625 c -0.39375,0.39375 -0.39375,1.0354167 0,1.4291667 l 9.5885417,9.4791663 -9.55937503,9.595834 c -0.18958334,0.189583 -0.29895834,0.444791 -0.29895834,0.714583 0,0.269792 0.10208334,0.525 0.29895834,0.714583 l 2.72708333,2.741667 c 0.196875,0.196875 0.4520833,0.298958 0.7145833,0.298958 0.2552084,0 0.5177084,-0.09479 0.7145834,-0.298958 l 9.5229168,-9.566667 9.530208,9.559375 c 0.196875,0.196875 0.452084,0.298959 0.714584,0.298959 0.255208,0 0.517708,-0.09479 0.714583,-0.298959 l 2.727083,-2.741666 c 0.189584,-0.189584 0.298959,-0.444792 0.298959,-0.714584 -0.0073,-0.2625 -0.116667,-0.517708 -0.306251,-0.707291 z" /></svg>
