<?xml version="1.0" encoding="UTF-8" standalone="no"?>
<svg
   xmlns:dc="http://purl.org/dc/elements/1.1/"
   xmlns:cc="http://creativecommons.org/ns#"
   xmlns:rdf="http://www.w3.org/1999/02/22-rdf-syntax-ns#"
   xmlns:svg="http://www.w3.org/2000/svg"
   xmlns="http://www.w3.org/2000/svg"
   xmlns:sodipodi="http://sodipodi.sourceforge.net/DTD/sodipodi-0.dtd"
   xmlns:inkscape="http://www.inkscape.org/namespaces/inkscape"
   inkscape:version="1.0 (4035a4f, 2020-05-01)"
   sodipodi:docname="hamburger.svg"
   xml:space="preserve"
   width="28"
   viewBox="0 0 28 20"
   version="1.1"
   id="Layer_1"
   height="20"><metadata
   id="metadata333"><rdf:RDF><cc:Work
       rdf:about=""><dc:format>image/svg+xml</dc:format><dc:type
         rdf:resource="http://purl.org/dc/dcmitype/StillImage" /></cc:Work></rdf:RDF></metadata><defs
   id="defs331" /><sodipodi:namedview
   inkscape:current-layer="Layer_1"
   inkscape:window-maximized="0"
   inkscape:window-y="23"
   inkscape:window-x="0"
   inkscape:cy="10.39619"
   inkscape:cx="14"
   inkscape:zoom="22.96875"
   showgrid="false"
   id="namedview329"
   inkscape:window-height="1005"
   inkscape:window-width="1680"
   inkscape:pageshadow="2"
   inkscape:pageopacity="0"
   guidetolerance="10"
   gridtolerance="10"
   objecttolerance="10"
   borderopacity="1"
   bordercolor="#666666"
   pagecolor="#ffffff" />
  <path
   id="path326"
   d="M 2,4 H 26 C 27.104,4 28,3.104 28,2 28,0.896 27.104,0 26,0 H 2 C 0.896,0 0,0.896 0,2 0,3.104 0.896,4 2,4 Z M 26,8 H 2 c -1.104,0 -2,0.896 -2,2 0,1.104 0.896,2 2,2 h 24 c 1.104,0 2,-0.896 2,-2 0,-1.104 -0.896,-2 -2,-2 z m 0,8 H 2 c -1.104,0 -2,0.896 -2,2 0,1.104 0.896,2 2,2 h 24 c 1.104,0 2,-0.896 2,-2 0,-1.104 -0.896,-2 -2,-2 z" />
</svg>
